<?xml version="1.0" encoding="iso-8859-1"?>
<!-- Generator: Adobe Illustrator 19.0.0, SVG Export Plug-In . SVG Version: 6.00 Build 0)  -->
<svg version="1.1" id="Capa_1" xmlns="http://www.w3.org/2000/svg" xmlns:xlink="http://www.w3.org/1999/xlink" x="0px" y="0px"
	 viewBox="0 0 512.001 512.001" style="enable-background:new 0 0 512.001 512.001;" xml:space="preserve">
<path style="fill:#DDDDDD;" d="M356.908,10.268c-1.594-3.517-6.507-3.739-8.438-0.395l-95.167,164.65l30.155,53.978
	c17.031,11.796,29.799,30.613,28.131,50.321l0.007,0.004C398.016,129.141,368.916,36.76,356.908,10.268z"/>
<path style="fill:#D1D1D1;" d="M365.628,36.107c-2.828-11.546-6.161-20.194-8.72-25.839c-1.594-3.518-6.507-3.739-8.438-0.395
	l-95.167,164.65l15.885,28.436L365.628,36.107z"/>
<path style="fill:#DDDDDD;" d="M161.81,9.873c-1.931-3.344-6.844-3.122-8.438,0.395c-12.009,26.492-41.109,118.872,45.312,268.557
	l88.797-51.268l0.007-0.003L161.81,9.873z"/>
<path style="fill:#D1D1D1;" d="M169.712,23.56L161.81,9.873c-1.931-3.344-6.844-3.122-8.438,0.395
	c-12.009,26.492-41.109,118.872,45.312,268.556l24.105-13.918C155.618,147.771,159.275,65.943,169.712,23.56z"/>
<path style="fill:#EFEFEF;" d="M161.81,9.874c-1.931-3.344-6.844-3.123-8.438,0.395c-3.226,7.116-7.683,18.996-10.805,35.457
	l74.871,129.466c6.025,10.435,12.943,13.992,24.184,13.992c5.517,0,14.549-4.046,19.671-7.002l0,0L161.81,9.874z"/>
<path style="fill:#DDDDDD;" d="M158.632,7.589c-2.045-0.405-4.257,0.467-5.318,2.809c-4.942,10.924-8.512,23.54-10.747,35.325v0.002
	l21.444,37.08c-0.8-24.513,2.029-44.327,5.702-59.245C162.249,11.612,162.261,8.309,158.632,7.589z"/>
<path style="fill:#E84242;" d="M440.331,449.348L429.7,413.513c-12.667-42.699-42.036-78.795-81.894-98.67
	c-14.251-7.107-27.679-17.862-36.217-36.02l-0.082,0.021c0.966-11.157-1.345-22.709-7.369-33.142
	c-15.634-27.08-50.262-36.358-77.342-20.724c-44.031,25.422-34.513,91.702,14.597,103.956c9.914,2.475,18.402,8.853,23.077,17.94
	l16.335,37.095c5.064,9.843,15.205,16.029,26.275,16.029c9.025,0,17.42,4.628,22.24,12.259l13.166,20.845
	c5.089,8.059,6.476,17.914,3.808,27.063c-8.986,30.813,26.824,56.805,54.324,38.035l29.449-20.101
	C439.361,471.754,443.505,460.143,440.331,449.348z M384.8,442.762c-8.61,0-15.795-6.758-16.229-15.453
	c-0.145-2.914-1.045-5.757-2.604-8.225c-13.028-19.609-12.818-22.778-17.953-24.816c-8.347-3.314-12.428-12.768-9.114-21.116
	c3.315-8.349,12.769-12.434,21.117-9.113c8.429,3.347,15.444,9.167,20.286,16.833c9.097,16.254,19.793,25.56,20.754,44.818
	C401.517,434.936,394.159,442.762,384.8,442.762z"/>
<path style="fill:#D63434;" d="M370.291,446.656c1.024-3.51,1.445-7.122,1.296-10.698c-4.766-6.651-1.326-10.077-5.619-16.875
	c-13.028-19.609-12.818-22.778-17.953-24.816c-3.158-1.254-5.701-3.388-7.468-6.006c-2.978-1.149-6.178-1.771-9.466-1.771
	c-11.07,0-21.211-6.186-26.275-16.029l-16.335-37.095c-4.675-9.087-13.163-15.465-23.077-17.94
	c-43.564-10.871-57.427-65.598-25.201-96.045c-35.754,9.787-52.683,50.778-34.116,82.935c7.992,13.844,20.948,23.029,35.321,26.615
	c9.915,2.475,18.402,8.853,23.077,17.94l16.335,37.095c5.064,9.843,15.205,16.029,26.275,16.029c9.025,0,17.42,4.628,22.24,12.259
	l13.166,20.845c5.089,8.059,6.476,17.914,3.808,27.063c-2.696,9.241-1.332,19.193,3.751,27.368
	c10.753,17.297,33.752,22.148,50.575,10.666l12.058-8.229C386.547,496.14,362.851,472.166,370.291,446.656z"/>
<path style="fill:#F94A46;" d="M241.394,328.933c-23.145-5.776-39.539-25.094-42.447-47.66c-8.566,16.675-21.4,26.79-34.994,33.569
	c-39.858,19.877-69.227,55.972-81.894,98.671l-10.631,35.835c-3.175,10.795,0.971,22.406,10.264,28.748l29.45,20.1
	c16.822,11.482,39.822,6.631,50.574-10.666l0,0c5.082-8.175,6.445-18.126,3.751-27.368c-2.669-9.149-1.283-19.005,3.808-27.063
	l13.165-20.845c4.819-7.631,13.215-12.259,22.241-12.259c11.069,0,21.211-6.186,26.275-16.029l16.335-37.094
	c2.14-4.159,5.083-7.741,8.591-10.65C251.722,332.774,246.772,330.274,241.394,328.933z M163.746,394.267
	c-1.992,0.791-3.648,2.165-4.789,3.973c-11.385,19.061-15.402,21.726-15.768,29.069c-0.448,8.98-8.104,15.891-17.052,15.433
	c-8.97-0.447-15.88-8.081-15.433-17.052c0.424-8.492,3.047-16.781,7.588-23.974c10.704-14.686,14.435-30.128,33.451-37.678
	c8.348-3.32,17.801,0.765,21.117,9.113C176.173,381.499,172.094,390.952,163.746,394.267z"/>
<path style="fill:#E84242;" d="M95.759,466.846c6.961-22.734,14.18-51.286,22.045-64.299c15.421-30.071,39.848-54.932,70.479-70.207
	c9.259-4.617,18.163-10.789,25.608-19.52c-8.274-8.798-13.436-19.836-14.945-31.547c-8.566,16.675-21.4,26.79-34.994,33.569
	c-39.858,19.877-69.227,55.972-81.894,98.671l-10.631,35.835c-3.175,10.795,0.97,22.406,10.264,28.748l19.672,13.427
	C95.436,484.937,93.178,475.622,95.759,466.846z"/>
<circle style="fill:#F47D7D;" cx="256.103" cy="274.012" r="18.924"/>
<path style="fill:#E56E6E;" d="M256.101,255.1c-6.531,0.008-12.882,3.384-16.383,9.447c-5.225,9.051-2.125,20.625,6.926,25.85
	c9.051,5.225,20.625,2.125,25.85-6.926c0.003-0.005,0.005-0.011,0.008-0.016C258.079,283.473,248.792,267.786,256.101,255.1z"/>
<path d="M243.017,251.126c-23.042,13.304-13.988,49.317,13.255,49.317c20.347,0,32.949-22.136,22.841-39.646
	C271.825,248.18,255.632,243.841,243.017,251.126z M267.264,276.965c-1.635,6.098-7.892,9.713-13.993,8.079
	c-9.807-2.628-11.511-15.874-2.756-20.93C259.272,259.06,269.892,267.16,267.264,276.965z"/>
<path d="M447.642,447.215l-10.63-35.835c-13.386-45.119-44.635-82.752-85.737-103.25c-14.119-7.041-24.304-16.586-31.047-29.09
	c32.386-56.938,51.617-111.556,57.158-162.392c0.448-4.118-2.525-7.818-6.643-8.268c-4.116-0.448-7.818,2.525-8.267,6.643
	c-4.771,43.79-20.24,90.708-46.041,139.738c-4.125-13.076-12.326-24.46-23.175-32.42l-29.34-50.818l88.41-153.129
	c4.745,11.988,10.908,33.028,11.638,62.628c0.099,4.023,3.382,7.38,7.682,7.312c4.142-0.103,7.414-3.542,7.312-7.682
	c-0.912-36.96-9.853-61.903-15.101-73.483c-4.148-9.15-16.832-9.593-21.764-1.049l-86.836,150.403L168.426,6.125
	c-4.955-8.592-17.64-8.043-21.764,1.047c-6.465,14.263-17,45.118-14.915,91.514c2.524,56.187,22.479,117.297,59.296,181.663
	c-6.74,11.876-16.682,20.983-30.316,27.781c-14.794,7.378-28.411,16.998-40.471,28.591c-2.986,2.871-3.08,7.618-0.21,10.603
	c2.872,2.988,7.619,3.079,10.603,0.21c29.248-28.117,45.992-24.537,65.601-48.35c13.931,32.543,43.012,36.046,48.024,38.575
	c-4.948,6.674-4.729,9.305-19.967,42.962c-3.826,7.269-11.282,11.775-19.51,11.775c-11.666,0-22.351,5.889-28.58,15.753
	l-13.167,20.845c-6.233,9.872-7.934,21.961-4.666,33.168c7.013,24.034-21.122,44.602-42.896,29.74l-29.448-20.101
	c-6.629-4.525-9.562-12.738-7.301-20.422c9.109-27.265,11.364-49.583,30.503-78.327c2.295-3.447,1.361-8.103-2.087-10.399
	c-3.445-2.294-8.102-1.361-10.398,2.087c-20.701,31.091-23.469,55.803-32.402,82.389c-4.107,13.962,1.21,28.854,13.23,37.058
	l29.449,20.101c33.026,22.543,76.763-8.583,65.752-46.327c-2.066-7.082-0.991-14.722,2.948-20.96l13.166-20.845
	c3.467-5.487,9.41-8.764,15.899-8.764c15.502,0,28.369-9.756,33.139-20.507c16.751-37.411,15.262-35.846,18.074-39.815
	c0.665,0.939,1.277,1.917,1.814,2.941c17.11,38.845,16.233,36.896,16.433,37.283c6.379,12.396,19.003,20.098,32.943,20.098
	c6.489,0,12.434,3.276,15.899,8.764l13.166,20.845c3.939,6.237,5.014,13.878,2.948,20.959c-3.288,11.27-1.619,23.454,4.581,33.428
	c13.005,20.919,40.765,26.83,61.171,12.9l29.448-20.101C446.437,476.086,451.754,461.194,447.642,447.215z M194.1,254.778
	c-42.937-81.637-50.154-144.26-46.833-186.155l8.027,13.882c2.074,3.585,6.659,4.81,10.246,2.737
	c3.585-2.073,4.811-6.66,2.737-10.246l-17.654-30.531c1.785-8.772,4.286-17.741,7.571-26.065
	c12.053,20.877,82.238,142.442,92.74,160.631c-3.768,1.601-7.281,2.655-9.191,2.655c-8.914,0-13.214-2.489-17.693-10.248
	l-38.199-66.055c-2.073-3.585-6.66-4.81-10.246-2.737c-3.585,2.073-4.811,6.66-2.737,10.246l38.196,66.05
	c7.181,12.437,16.355,17.742,30.68,17.742c5.379,0,11.908-2.413,16.726-4.602l11.25,19.486
	C236.807,203.902,204.065,223.062,194.1,254.778z M425.96,471.902l-29.449,20.101c-21.364,14.577-50.054-5.21-42.896-29.741
	c3.269-11.207,1.568-23.297-4.667-33.167l-13.166-20.845c-6.229-9.864-16.914-15.753-28.58-15.753
	c-8.227,0-15.683-4.507-19.511-11.775c-17.11-38.845-16.232-36.894-16.432-37.281c-5.626-10.935-15.985-18.805-27.93-21.785
	c-42.695-10.654-50.797-68.182-12.663-90.184c34.799-20.093,76.874,7.648,73.489,46.725c-0.143,1.65,0.284,3.274,1.158,4.639
	c8.189,16.959,21.043,29.631,39.267,38.72c37.396,18.648,65.845,52.944,78.052,94.093l10.625,35.818
	C435.523,459.164,432.591,467.377,425.96,471.902z"/>
<path d="M386.764,376.867c-8.725-13.815-26.588-26.208-42.043-19.532c-19.532,8.431-18.821,36.176,0.646,43.901
	c1.442,0.576,0.536,0.24,14.381,21.852c0.87,1.379,1.373,2.968,1.455,4.594c0.656,13.171,11.857,23.217,24.914,22.551
	c13.115-0.653,23.203-11.796,22.551-24.914C407.576,403.41,395.597,392.816,386.764,376.867z M384.921,435.263
	c-4.668,0-8.506-3.658-8.739-8.328c-0.209-4.2-1.508-8.299-3.754-11.856c-12.251-17.919-12.966-24.382-21.526-27.782
	c-7.295-2.897-7.328-13.132-0.237-16.192c2.088-0.903,4.472-0.985,6.705-0.097c15.949,6.332,18.714,19.156,29.878,34.712
	c3.854,6.104,6.08,13.139,6.439,20.344C393.935,431.018,389.987,435.263,384.921,435.263z"/>
<path d="M127.081,450.261c12.669,0,23.088-9.918,23.718-22.579c0.217-4.307,2.167-5.042,14.618-25.436
	c0.294-0.466,0.704-0.805,1.217-1.009c19.774-7.849,19.88-35.601,0.648-43.902c-5.829-2.52-12.291-2.612-18.184-0.267
	c-9.915,3.938-18.165,10.783-23.858,19.799c-8.869,16.015-20.812,26.517-21.903,48.451
	C102.662,438.831,113.401,450.261,127.081,450.261z M137.919,384.875c3.989-6.314,9.767-11.11,16.716-13.868
	c2.175-0.865,4.561-0.829,6.702,0.098c7.146,3.085,6.976,13.329-0.238,16.193c-3.476,1.38-6.366,3.779-8.361,6.937
	c-10.662,18.184-16.407,22.438-16.917,32.699c-0.233,4.67-4.072,8.327-8.739,8.327c-5.06,0-9.013-4.239-8.766-9.199
	C118.674,418.858,128.355,401.764,137.919,384.875z"/>
<g>
</g>
<g>
</g>
<g>
</g>
<g>
</g>
<g>
</g>
<g>
</g>
<g>
</g>
<g>
</g>
<g>
</g>
<g>
</g>
<g>
</g>
<g>
</g>
<g>
</g>
<g>
</g>
<g>
</g>
</svg>
